<svg width="488" height="365" fill="none" xmlns="http://www.w3.org/2000/svg"><path d="M166 364.3c23.2 0 42-1.7 42-3.9 0-2.1-18.8-3.9-42-3.9-23 0-41.8 1.8-41.8 4 0 2 18.7 3.8 41.9 3.8zM381 364.3c23.2 0 42-1.7 42-3.9 0-2.1-18.8-3.9-42-3.9-23 0-41.8 1.8-41.8 4 0 2 18.8 3.8 41.9 3.8z" fill="#C8DBFB"/><path d="M469.5 85c0-.8-.2-1.5-.4-2.2" stroke="#C8DBFB" stroke-linecap="round" stroke-linejoin="round"/><path d="M468.1 78.6c-7.5-25.4-31.3-23-52.8-23l-381.8.9c-36 0-32.5 52.1-4.3 52 16.2 0 22.4 30.5-5.6 30.5-16.9 0-17.4 21.4-6 25.7" stroke="#C8DBFB" stroke-linecap="round" stroke-linejoin="round" stroke-dasharray="3.99 3.99"/><path d="M19.6 165.3l2.2.1" stroke="#C8DBFB" stroke-linecap="round" stroke-linejoin="round"/><path d="M26.2 164.4a5.2 5.2 0 11-10.3 1.8 5.2 5.2 0 0110.3-1.8zM474.6 87.3a5.2 5.2 0 11-10.2-1.9 5.2 5.2 0 0110.2 1.9zM79 126.5c-.7 4.3-1.8 8.4-3.1 12.4-2.9 8.8-6.9 17.2-10.9 25.6a48.4 48.4 0 01-15 16.3c.4-11.3.5-24.6-.8-36-1.3-11.1 2.7-19.5-1.7-29.8l-1.7-4a55 55 0 01-5-15c-.8-6.6 1.3-14.2 7-17.7 4.2-2.5 9.6-2.3 14-.4 4.5 2 8 5.6 10.7 9.6 7.6 11.2 9 25.7 6.5 39z" fill="#5193F4"/><path d="M58.9 89.7c8.5 12 9.2 26 10 40.6a78.3 78.3 0 01-10 42.3" stroke="#0B43A4" stroke-miterlimit="10" stroke-linecap="round" stroke-linejoin="round"/><path d="M58.5 310.8c-5.9-5.3-12-10.6-16.3-17.2-3.8-5.8-6.3-12.3-9.6-18.4-2.2-3.9-4.7-7.7-6-12-1.2-4.3-1-9.4 2.1-12.6 3.2-3.4 8.7-4 13-2.2a23 23 0 0110.1 9.3 44.5 44.5 0 016.5 17.3c.9 5.5.7 11.2 1.5 16.8.8 5.1 2.6 10 4.8 14.8 2 4.3 7 12 8.3 16.4-3.6 1.7-11.8-10-14.4-12.2z" fill="#00AD9F"/><path d="M37.8 256.3c5.6 2.4 7.9 9.2 9 15.2 1.4 7 1 14.4 4.2 20.7 6 11.8 13.7 25.2 19.5 29.3" stroke="#00AD9F" stroke-miterlimit="10" stroke-linecap="round" stroke-linejoin="round"/><path d="M29.3 294.6c-5-2-11.5-2.8-14.7 1.5-2.6 3.6-1.3 8.6.6 12.7 1.5 3.4 3.5 6.9 6.7 8.7 2.2 1.3 4.8 1.7 7.4 2 7 .8 14.2 1.2 21.4 1.2 8.2 0 18.3 3.4 25.1 8.5-8.8-16.3-30-28-46.5-34.6z" fill="#0056EC"/><path d="M20.6 305.2a77 77 0 0118.7 2.5c6.1 1.8 29.8 12.7 33.5 17.3" stroke="#0B43A4" stroke-miterlimit="10" stroke-linecap="round" stroke-linejoin="round"/><path d="M83 261c-6.3-10-17.3-17-29.1-18.6-8.8-1.2-17.7.4-26.4-1.4a34 34 0 01-21.9-15.7c-4.7-8-6-17.9-3.3-26.8 2-6.7 6.7-13.1 13.3-15.3 3.7-1.1 7.7-1 11.4 0 3.4.7 6.6 2.2 9.6 4a52 52 0 0116.3 17.9c3.7 6.3 12.8 16.2 19 22.6 3.7 3.8 6.4 6.3 6.4 6.3 4.3 5.4 2.3 20.7 4.8 27z" fill="#52D2BC"/><path d="M13.7 202.7c21 9.5 43.8 22 58.7 39.5" stroke="#00AD9F" stroke-miterlimit="10" stroke-linecap="round" stroke-linejoin="round"/><path opacity=".2" d="M74.4 239.8s-31.2-25.3-37.8-52.5A52 52 0 0152.9 205c3.7 6.3 12.8 16.2 19 22.6l2.5 12.1zM75.9 139C73 147.6 69 156 65 164.4a48.4 48.4 0 01-15 16.3c.4-11.3.5-24.6-.8-36-1.3-11.1 2.7-19.5-1.7-29.8l-1.7-4 1.2.5c7.1 3 10.4 10.6 11 18 .5 6-.6 12-1.4 18a24 24 0 000 8.4c.7 3.3 5.5 3.1 6-.1l2-10.1c.5-3 1.1-6.2 3.6-8.3 1-.8 2.2-1.3 3.5-1.3 2 0 3.3 1.3 4.2 2.8z" fill="#5275A0"/><path d="M74.4 233.5c-5-25.8-7.5-29.8-5.3-36.3 2.7-8.2 1.2-16.5 3.8-24.8a47.8 47.8 0 002.3-25.6c-.7-2.7-2-5.6-5.2-5.7-1.3 0-2.6.5-3.6 1.3-2.4 2-3 5.2-3.6 8.3l-1.9 10c-.6 3.3-5.3 3.5-6 .2a24 24 0 010-8.4c.8-6 1.9-12 1.4-18.1-.6-7.3-4-14.9-11-18-2.6-1-5.4-1.2-8-.6-7.5 2-9.5 9.2-8.4 15.4.8 4.4 2.8 8.4 4.7 12.5 4.5 9.8 1.2 18.9 1.8 29.7 1.8 29.9 39 60 39 60z" fill="#7EE8D4"/><path d="M41.2 123.7c3.7 18.3 7.4 36.8 14.5 54.1 2.1 5 3.1 11.8 15.2 25.6" stroke="#00AD9F" stroke-miterlimit="10" stroke-linecap="round" stroke-linejoin="round"/><path d="M184.5 128.4l-11-13a114 114 0 00-11.8-11.8c-8.5-7-18.1-13-28.3-17.3-6.2-2.7-12.7-4.9-18-9-5.2-4.3-9-11.2-7.2-17.7 1.2-4.7 5.2-8.3 9.8-10a26 26 0 0114.3-.5A53.4 53.4 0 01164 72.7l.4.6c5.5 8.4 9.4 17.7 12.7 27.3l3.1 9.2c1.5 4.5 6.2 14 4.3 18.6z" fill="#5193F4"/><path d="M124 60.2c14.4 2.7 24.6 12.3 35.3 22.3a78.3 78.3 0 0122 37.4" stroke="#0B43A4" stroke-miterlimit="10" stroke-linecap="round" stroke-linejoin="round"/><path opacity=".2" d="M173.4 115.3c0 1.5 0 3 .3 4.5-3.7-.8-6.2-6.4-7.8-12.5-1.6-5.9-2.4-12.3-2.7-15.3-.5-6.2 0-12.5 1.2-18.7 5.5 8.4 9.4 17.7 12.7 27.3a112.5 112.5 0 00-3.7 14.7z" fill="#5275A0"/><path d="M198.5 63.3c-1.3 5.4-4.5 10-7.4 14.8a115.2 115.2 0 00-13.9 34c-.7 2.9-1 5.8-.5 8.8-7.1-1.6-10-21.8-10.4-27.8-.9-10.8 1-21.9 5.4-31.8 2-4.4 4.5-8.6 8.3-11.4 3.9-2.8 9.4-3.8 13.4-1.3a11 11 0 014.8 6.6c.8 2.6.8 5.5.3 8z" fill="#52D2BC"/><path d="M174 115c-4.4-11.1-1.7-34.6 5.4-49.4a25 25 0 019.4-11.1" stroke="#00AD9F" stroke-miterlimit="10" stroke-linecap="round" stroke-linejoin="round"/><path opacity=".2" d="M198.5 63.3c-1.3 5.4-4.5 10-7.4 14.8-1.5 2.5-3 5-4.3 7.7a26 26 0 01-3.6-10.7c-.6-6.3 1.8-13 7-16.7 2.3-1.8 5.1-2.7 8-3.2.8 2.6.8 5.5.3 8z" fill="#5275A0"/><path d="M239.4 110.3c-.3 2-1 4-1.8 6a39 39 0 01-19.7 17.4l-.6-13.6c-.5-12.4-14-19.3-22.4-28.3a29 29 0 01-8.3-16.7c-.5-6.3 1.9-13 7-16.7 4.3-3.1 9.9-3.8 15.2-3.4 8.5.7 17 4.2 22.3 10.9l.7.8c3.2 4.4 4.9 9.8 6.1 15.2 2.1 9.3 3 19 1.5 28.4z" fill="#00AD9F"/><path d="M197.2 65a57.5 57.5 0 0124 19.6c7.6 12.5 6 28.7.1 42.1" stroke="#00AD9F" stroke-miterlimit="10" stroke-linecap="round" stroke-linejoin="round"/><path d="M394.9 190.1c5.9-9.7 2.8-22.3 5-33.5a37 37 0 0113.2-22c4.3-3.5 10.3-6 15.2-3.4 1 .6 2.3 1.4 3.3.7.6-.3.9-1 1-1.8 1.2-6-1.7-12.7.7-18.4 1.3-3 4-5.4 6.7-7.1a36.7 36.7 0 0118.2-5.7c1.7-.1 3.5 0 5 .7 2.8 1.4 4 4.8 3.7 7.9-.4 3-2.1 5.8-4 8.2-6.2 8.2-15.3 15.2-16.5 25.4-.1 1.2-.1 2.6.4 3.7.6 1.2 1.7 2 2.3 3 1.9 3.6-1.8 7.6-5.4 9.3a31.2 31.2 0 01-10.6 3c-2.5.1-5.3.2-7 2-3.2 3.5.5 9-.2 13.6-.4 2.8-2.5 5.1-4.6 7.2a83 83 0 01-12.7 10c-3.6 2.3-7.5 4.4-10.8 7.3a16.7 16.7 0 00-6.1 11.2" fill="#52D2BC"/><path d="M402.7 180.6c1-4.7 3.1-9 5.3-13.4a80.5 80.5 0 0112-19c3.9-4.2 8.6-7.6 12.6-11.7 2.8-3 5.2-6.3 7.1-9.9 1-2 2-4 3.3-5.7 1.7-2 4-3.5 5.9-5.3a25 25 0 006.2-8.5" stroke="#00AD9F" stroke-miterlimit="10" stroke-linecap="round" stroke-linejoin="round"/><path d="M479.9 196.9a36.2 36.2 0 01-6.7 14.3c-2.4 2.8-5.3 5-8.5 6.8a61.5 61.5 0 01-26.5 7.2c-10.7.5-21.7-1.9-32 1.2a31.5 31.5 0 00-18.3 14.4l1.4-8.9a99.8 99.8 0 0110.5-27.6 104.7 104.7 0 0137.6-32 43.6 43.6 0 0124-5.2c8.2 1 16.3 6.2 18.9 14 1.6 5.1 1 10.6-.4 15.8z" fill="#5193F4"/><path d="M396.3 225.2a64.9 64.9 0 0133-25c8.3-2.8 17-3.9 25.4-6.3a38.4 38.4 0 0021.8-13.8" stroke="#0B43A4" stroke-miterlimit="10" stroke-linecap="round" stroke-linejoin="round"/><path d="M401.5 310.5c.4-12 6.6-23 14.1-32.3a56.8 56.8 0 0123.1-18.4c3-1 6.2-1.8 9.2-1 3 .7 5.8 3.3 5.8 6.4 0 2.6-1.7 5-3.5 6.8-6.2 6.1-14 10-21.5 14.6-12.8 7.7-24.9 18-30 32" fill="#52D2BC"/><path d="M406.2 300c7.8-17.3 28-32.9 41.3-34.8" stroke="#00AD9F" stroke-miterlimit="10" stroke-linecap="round" stroke-linejoin="round"/><path d="M396.6 320c-.1-2 6.4-7.2 7.9-8.5a75.5 75.5 0 0128-16c4.2-1.4 8.6-2.3 12.8-1.3 4.1 1 8 4.4 8.3 8.8.4 4.4-2.5 8.6-6.2 10.7-3.7 2.1-8 2.4-12.2 2.2-6.4-.4-12.7-2-19-2-6.5.1-15.5.8-19.6 6.1z" fill="#00AD9F"/><path d="M403.3 314a89 89 0 0147.3-10" stroke="#00AD9F" stroke-miterlimit="10" stroke-linecap="round" stroke-linejoin="round"/><path opacity=".2" d="M239.4 110.3c-.3 2-1 4-1.8 6-4.6-9.8-8.6-22.5-9.6-38.2-.3-4.2.9-8.6 3.2-12.2l.6.8c3.2 4.4 4.9 9.8 6.1 15.2 2.1 9.3 3 19 1.5 28.4z" fill="#5275A0"/><path d="M284.8 109.8c9.8-3.5 20-6.3 28.9-11.7 2.7-1.6 5.3-3.5 7.2-6 1.9-2.5 3-5.6 2.7-8.8-.5-3.1-2.5-6.2-1.8-9.3.4-2 2-3.7 3.1-5.4 2.9-4.2 3.7-9.6 2.3-14.4-1.6-5.2-5.4-9.3-7.6-14.2-1.8-4-2.5-8.6-1.9-13-8.2.2-15.7 4.7-23.8 6.2-6.1 1.1-12.6.5-18.7 2a29.6 29.6 0 00-22 23.7c-5.2-1-10.8 1-14.4 4.8-3.8 4-6 9.8-5.6 15.4 2.5 40.6 25.7 61.7 25.7 61.7s22.2-29.7 26-31z" fill="#7EE8D4"/><path d="M262.9 109.5c-1-10 2.5-20 6.5-29.1 3.9-9 8.4-17.8 14.4-25.5 6-7.8 13.8-14.4 22.8-18.1M271.6 43c-1 8.9-.3 19.6 2 28.3M275.3 68a69.8 69.8 0 0138-9.7M250.4 69.8c12.3 5.1 12.8 23.2 13.1 28.3M266.8 86.6c9.4-6.7 23-8.7 33-6.2M292.4 38.3a14.8 14.8 0 00-3.2 10.5M291.9 46.3A23.5 23.5 0 01308 45" stroke="#00AD9F" stroke-miterlimit="10" stroke-linecap="round" stroke-linejoin="round"/><path d="M50.7 65.9c1.2 0 9-6 12-7.9.9-.5 1.8-1.1 2.4-2 .5-.7.8-1.9.4-2.8-.5-1.1-1.4-2.3-3.7-2.3-3.9 0-5.3 1.3-7.2 3.3-6.2 6.5-3.9 11.7-3.9 11.7zM86 89.4c3.4 1.5 7 3 10.7 2.5 1.5-.1 3-.8 3.5-2.2.4-1.1-.1-2.5-1-3.3-1-.8-2.2-1.2-3.4-1.5-4.6-1.1-11-.5-15.5.8 0 0 3.6 2.7 5.6 3.7zM108.5 38.8c-1.6-1-3.2-2.3-3.2-4 0-1.9 1.8-3.3 3.7-3.3 1.8 0 3.4 1 4.8 2.2 5.8 5 5 10.8 5 10.8s-8.6-4.6-10.3-5.7zM113 23.4a7.4 7.4 0 01-3.5-2.5c-.4-.6-.6-1.4-.4-2 .4-1.2 1.1-2.2 4-1.7C122 19 123.8 25 123.8 25s-8.5-.6-10.9-1.6zM139.2 37c3.6-.4 7.3-2.2 9.5-5 .9-1 1.7-2.2 2-3.5.2-1.4 0-2.9-1.1-3.8-1.3-1-3.3-.9-4.6 0a9.3 9.3 0 00-3 4c-1 2-2.8 8.2-2.8 8.2z" fill="#4A49CA"/><path d="M75.2 167.7l-26-23c-4.7-4-9.4-8.3-12.3-13.7-6.3-11.7-2.7-26.8 5.8-37a74.2 74.2 0 0133.5-20.5c12.5-4.4 25.5-7.5 37.5-13.3 7.4-3.6 15-9 17-17 1.2-4.9.2-10.3-2.7-14.3-3-4-7.8-6.7-12.8-7M145.2 28.6c-2.3 7.3-11.6 11.7-15.8 18" stroke="#0B43A4" stroke-miterlimit="10" stroke-linecap="round" stroke-linejoin="round"/><path d="M112 37c2 1.9 4 3.5 5.7 5.6a12.2 12.2 0 01-1.4 16.3M65.4 77.8C73 83.7 83 87.6 92.7 88M47.8 88.5A27 27 0 0157 59" stroke="#0B43A4" stroke-miterlimit="10" stroke-linecap="round" stroke-linejoin="round"/><path d="M327.7 44.6c-.4-1.3-.4-3 .5-3.9.8-.7 2-1 3-.6 7.7 3.3 6.8 15.2 6.8 15.2s-7.2-1-10.3-10.7zM327.5 66.8c-5 9 12.6 8.3 18.9 3 0 0-14.6-10.6-18.9-3zM349.6 45.2c-1.2-1.6-1.6-4-.3-5.6 1-1.1 2.7-1.5 4.1-1.2 1.5.3 3.7 1.7 4.7 2.8 5.7 7.2 3 14.2 3 14.2s-9.5-7.5-11.5-10.2zM419.1 67.3c-.4-1.4-.3-3 .8-4 .7-.7 1.6-.9 2.6-.8.9 0 1.7.4 2.6.8 1.8.8 3.1 2.2 4 4 2.2 4.4.7 10 .7 10s-9.6-6.5-10.7-10zM397.3 83.6a11.2 11.2 0 00-11.6-1.8 6 6 0 00-2.5 1.8c-1.4 2-1 4.7.5 6.6 1.5 1.9 3.6 3 5.8 4 3.9 1.8 10 2.1 14 3.2 0 0 0-8.2-6.2-13.8z" fill="#4A49CA"/><path d="M333.1 46.5a30.7 30.7 0 0018 18.2c8.1 3.5 17 4.4 25.9 5 8.8.5 17.7.8 26.2 3.1 8.3 2.3 16.5 7 20 14.8 4.4 9.5.6 20.9-5.5 29.4-6 8.5-14.3 15.3-20.2 24-2.7 4-5 8.6-4.4 13.4.8 6.3 6.1 11 11 15M353.4 43.4A50.5 50.5 0 01365 68.5" stroke="#0B43A4" stroke-miterlimit="10" stroke-linecap="round" stroke-linejoin="round"/><path d="M333.8 68.3c3.4.9 6.7 1.8 10.2 1.8 3.4 0 7.4-2 9.9-4.3M424.9 67.8c3 3 5 7.3 5.1 11.6.2 4.4-2.2 9.6-5 12.9M392.2 87.5a174 174 0 0018.6 15.3c3.1 2.2 9.4 5 12.2 4.3" stroke="#0B43A4" stroke-miterlimit="10" stroke-linecap="round" stroke-linejoin="round"/><path opacity=".2" d="M464.7 218a61.5 61.5 0 01-26.5 7.2c-10.7.5-21.7-1.9-32 1.2-4.7 1.4-9 3.9-12.6 7.3l-1.1.5c-.9-7.2 17.2-16.7 22.7-19.1 10-4.5 21-6.4 31.8-5.6 4.7.4 9.6 1.4 13.5 4 1.7 1.2 3.2 2.8 4.2 4.5z" fill="#5275A0"/><path d="M447 213.9c4.7.4 9.6 1.3 13.5 4 4 2.7 6.7 7.5 5.8 12.2-1.1 5.4-6.7 9-12.2 9.6-5.5.7-11-.8-16.4-2-12-2.4-24.4-3-36.6-1.6-3 .3-6 1-8.6 2.5-.9-7.3 17.2-16.7 22.7-19.2 10-4.4 21-6.4 31.8-5.5z" fill="#52D2BC"/><path d="M397.2 234c9-7.9 32-13.2 48.3-11.5 4.9.5 9.8 2 13.6 5.2" stroke="#00AD9F" stroke-miterlimit="10" stroke-linecap="round" stroke-linejoin="round"/><path d="M380.4 145.4l87.6-.2a18.6 18.6 0 01.1 37.2l-59.9.2M115.4 209.7L54 210a10.5 10.5 0 100 21h18" stroke="#0B43A4" stroke-miterlimit="10" stroke-linecap="round" stroke-linejoin="round" stroke-dasharray="4 4"/><path d="M17.6 257.2c-21 0-21.4 31.4 5.3 31.3l393.5-.8c16.5 0 18.3-25.8-2.1-25.8-40.7.1-42-19.3-19.5-19.3" stroke="#C8DBFB" stroke-miterlimit="10" stroke-linecap="round" stroke-linejoin="round" stroke-dasharray="4 4"/><path d="M22.5 256.3a5.2 5.2 0 11-10.2 1.8 5.2 5.2 0 0110.2-1.8z" fill="#5193F4"/><path d="M405 242.7a5.2 5.2 0 11-10.3 1.7 5.2 5.2 0 0110.2-1.7z" fill="#0B43A4"/><path opacity=".2" d="M410.5 333.3l-325.8.6a7.9 7.9 0 01-7.9-7.8l-.4-216c0-4.4 3.5-7.9 7.8-7.9l325.9-.7c4.3 0 7.9 3.5 7.9 7.9l.4 216c0 4.3-3.5 7.9-7.9 7.9z" fill="#5275A0"/><path d="M404.2 329.1l-325.9.7a7.9 7.9 0 01-7.9-7.8L70 106c0-4.4 3.5-8 7.8-8l325.9-.6c4.3 0 7.9 3.5 7.9 7.9l.4 216c0 4.3-3.5 7.8-7.8 7.8z" fill="#fff"/><path d="M403.2 97.4L78.7 98a8.6 8.6 0 00-8.6 8.6v7.4l341.7-.7v-7.5c0-4.7-3.9-8.5-8.6-8.5z" fill="#0056EC"/><path d="M79 329.8h49.1l-.4-215.8-57.6.1.4 207.2c0 4.7 3.9 8.5 8.6 8.5z" fill="#C8DBFB"/><path d="M403.8 99.6c3.1 0 5.7 2.5 5.7 5.7l.4 216c0 1.5-.5 3-1.6 4s-2.5 1.7-4 1.7l-326 .6a5.7 5.7 0 01-5.6-5.7l-.5-216c0-1.5.6-3 1.7-4 1-1 2.5-1.7 4-1.7l325.9-.6zm0-2.2L77.9 98a7.9 7.9 0 00-7.8 7.8l.4 216c0 4.4 3.5 7.9 7.9 7.9l325.9-.7c4.3 0 7.8-3.5 7.8-7.9l-.4-216c0-4.3-3.6-7.8-8-7.8z" fill="#0056EC"/><path d="M119.8 313.3H82.1a3 3 0 01-3-3v-.3a3 3 0 013-3l37.7-.1a3 3 0 013 3v.4a3 3 0 01-3 3zM115.3 167H83.1c-3 0-5.5-2.4-5.5-5.5v-32.2c0-3 2.4-5.5 5.5-5.5h32.1c3-.1 5.5 2.4 5.6 5.4v32.2c0 3-2.4 5.6-5.5 5.6z" fill="#fff"/><path d="M253 263.4l-112 .2a4 4 0 01-4-4v-.4a4 4 0 014-4l112-.2a4 4 0 014 4v.4a4 4 0 01-4 4zM246.5 135.6l-88.5.2a4 4 0 01-4-4v-.4a4 4 0 014-4l88.5-.2a4 4 0 014 4v.5a4 4 0 01-4 4zM386.5 225.2l-118 .3a4 4 0 01-4-4v-.4a4 4 0 014-4l118-.2a4 4 0 014 4v.4a4 4 0 01-4 4zM253 280.7l-112 .2a4 4 0 01-4-4v-.4a4 4 0 014-4l112-.2a4 4 0 014 4v.4a4 4 0 01-4 4zM253 298l-112 .2a4 4 0 01-4-3.9v-.5a4 4 0 014-4l112-.2a4 4 0 014 4v.5a4 4 0 01-4 4zM384.1 309.3l-113 .2a6.5 6.5 0 01-6.4-6.5l-.1-48.5c0-3.6 2.9-6.5 6.5-6.5l112.9-.3c3.6 0 6.5 3 6.5 6.5l.1 48.6c0 3.6-2.9 6.5-6.5 6.5zM88.9 105.9a2.8 2.8 0 11-5.5 0 2.8 2.8 0 015.5 0zM97.8 108.7a2.8 2.8 0 100-5.6 2.8 2.8 0 000 5.6zM112.3 105.9a2.8 2.8 0 11-5.6 0 2.8 2.8 0 015.6 0zM149.7 132.5a8 8 0 10-15.9-1.6 8 8 0 0015.9 1.6z" fill="#C8DBFB"/><path d="M117.5 173.7H82.2c-.8 0-1.5-.6-1.5-1.4v-.2c0-.8.7-1.5 1.5-1.5h35.3c.9 0 1.5.6 1.5 1.4v.2c0 .8-.6 1.5-1.5 1.5zM117.6 180.5H82.2c-.8 0-1.5-.6-1.5-1.4v-.2c0-.8.7-1.5 1.5-1.5h35.3c.9 0 1.5.6 1.5 1.4v.2c0 .8-.6 1.5-1.4 1.5z" fill="#fff"/><path d="M158 194.8h-10l.1 42h-8.6c-3 0-5.5-2.5-5.5-5.5l-.2-77.5c0-3.1 2.5-5.6 5.6-5.6h18.5l.1 46.6z" fill="#C8DBFB"/><path d="M222.9 148v1.1c3 0 5.4 2.4 5.4 5.4l.2 75.6a5.4 5.4 0 01-5.4 5.4l-82.6.2c-3 0-5.5-2.4-5.5-5.4l-.1-75.6a5.4 5.4 0 015.4-5.4l82.6-.2v-1zm0 0l-82.6.2c-3.6 0-6.5 3-6.5 6.5l.2 75.6c0 3.6 2.9 6.5 6.5 6.5l82.6-.2c3.6 0 6.5-3 6.5-6.5l-.2-75.6c0-3.6-3-6.5-6.5-6.5zM360.8 210.2l-110.2-24.9a6.5 6.5 0 01-4.9-7.8l12.4-54.9a6.5 6.5 0 017.8-4.9l110.2 25c3.5.7 5.7 4.2 4.9 7.7l-12.4 54.9a6.5 6.5 0 01-7.8 5z" fill="#C8DBFB"/><path d="M147.6 359.4h-15.4l-3.8-19.6h22.9l-3.7 19.6z" fill="#0056EC"/><path d="M132.7 339.8c0 1.6-.3 4.3.8 4.3 1 0 .6-2.5 1.8-2.4.8 0-.4 8.5 2.6 8.7 2 .1 1.6-4.2 1.8-6.9.2-1.8 2.5-1.4 2.5-.2v3.8c.1 2.5 4 1.9 4-1.6-.2-3.4 0-5.7 0-5.7h-13.5z" fill="#C8DBFB"/><path d="M129 351.7l-1-.1c-1-.3-1.8-.9-2.3-1.8-1.5-3.3 2.6-9.6 2.7-9.9l.3 1.2s-3.7 5.4-2.3 8.4c.4.7 1 1.1 1.9 1.3l.7.1c5.6 0 15-10.3 15.2-10.5.4-.4 1.1 0 .9.4-.5.5-10.1 10.9-16.1 10.9z" fill="#0C2340"/><path opacity=".2" d="M291 83c-22-.9-52.1 15.3-41.4 55-.2 3.3 1.8 5.7 4 5 2-.6.2-7 .2-7 3.6-29.4 10.4-34.5 22-34.4H303c6.7 1 18.9 5.6 20.7 29.2l6.8 1.3c.5-17-3.6-47.8-39.5-49.1z" fill="#5275A0"/><path d="M291 79.5c-22-.8-52.1 15.4-41.4 55l4.2-1.9c3.6-29.5 10.4-34.6 22-34.5H303c6.7 1 19.2 7 21 30.5h6.5c.5-17-3.6-47.7-39.5-49z" fill="#EF832B"/><path d="M286.5 80.2l-3.3 7.1s.4 4 4.4 4c4-.1 4.5-2 4.5-2l.5-8.2-6.1-1z" fill="#FFB9A3"/><path d="M303.2 74.2c-3.7 6.5-5.3 8.6-10.2 9.6-6.3 1.3-13.3-3-10-13.4 2.6-8.5 6.7-7.2 10.6-7 4 .4 13.6 3.7 9.6 10.8z" fill="#FFB9A3"/><path d="M288.5 69c-1-.5-2.3 0-3 .7-.8.9-1.2 2.1-.9 3.2a2.9 2.9 0 00-2.7 3c-1-2.4-.5-5-.7-7.4-.2-2.5 0-5.2 1.7-7a8 8 0 012.4-2c3.4-1.7 7.7-1.8 11.2 0 .7.3 2.5 1.4 5 .8 4.8-1.2 7.6 2 4.7 5.1 1 .3 2 .8 2.4 1.6 0 .3.1.6 0 .8l-.5.2c-.8.3-1.6.4-2.5.2.3.3 2.1.4 2.6 1.4 1.5 2.8-4.2 1.4-5 1.1 1 .2 3.5 2.3 2.7 3.7-.2.3-3.7 2.3-7.3-2-.9-1-2-1.9-3.2-2.2-1-.3-2 .1-3 .5-.7.2-2.5 1.3-3 .7-.5-.7.2-1.8-1-2.4z" fill="#0C2340"/><path d="M324.8 128.6c-1 3.4-2 3.7-.8 4.2 1.2.6 2.1-1.3 2.1-1.3l5.5 1s-1.3-3.5-2.1-3.9c-.9-.4-4.7 0-4.7 0zM253.8 132.6c.7 1.8.9 1.8 1.9 4 1.9 4-2.6 10.4-5.3 3.4-.8-2-.8-5.5-.8-5.5l4.2-1.9z" fill="#FFB9A3"/><path d="M296.2 60c3.7.2 8.3-2.4 11.2 1 .3.2.8-.2.6-.5-2.8-4-8-1-11.8-1.1-.4 0-.4.6 0 .6zM297.7 58c-2.5.4-5-.8-7.5-.4-2 .3-4 1.4-5.5 2.7-.4.4.1 1 .6.8 2.2-1.5 4.3-2.7 7-2.5 2 .1 3.7.7 5.6.1.5-.1.3-.8-.2-.8zM283.3 61.4a6 6 0 00-3 4.7c-.2 1.6-.3 5.1 1.3 6 .4.2.7-.3.4-.6-1-1-1-3.7-1-5 .1-2 1-3.5 2.5-4.7.3-.1 0-.6-.2-.4zM310.7 67.5c-.9-1.6-3.2-3-5-2-.3.2-.2.6.1.6.8 0 1.5 0 2.3.2a4 4 0 012.1 1.5c.3.3.7 0 .5-.3z" fill="#0C2340"/><path d="M190.2 232.8c11.5 4.2 21.5 17.4 19.2 27a26 26 0 01-10 15.5L197 271s6-9.4 5.4-13.8c-.8-7-9.7-11.8-9.7-11.8l-2.5-12.6z" fill="#0B43A4"/><path d="M162 355s-7.1 2.8-8.9 4.4h14v-4.5h-5.2zM192.8 354.7s2 2.3 2.4 4.6h-9.5c.1-1.5.8-3 1.7-4.6h5.4z" fill="#0C2340"/><path d="M193.4 354.9H187a932.5 932.5 0 00-5.3-75.9l3.5-.8 13.2-2.9c2.2 10.3-3 57.6-4.9 79.6z" fill="#047F76"/><path d="M169.5 278.6c-5 8-6.4 65.8-8.5 76.5l6.1.4s7.1-36.5 22.2-77.5l-19.8.6z" fill="#009790"/><path opacity=".2" d="M192 278c-3 8.1-5.7 16-8 23.5-1-11.4-1.9-20.6-2.4-22.5l3.5-.8 6.8-.2z" fill="#5275A0"/><path d="M169.5 278.6c-5 8-6.4 65.8-8.5 76.5l6.1.4s7.1-36.5 22.2-77.5l-19.8.6z" fill="#009790"/><path d="M173.4 214s-4 15.1 5.9 15l-.6 4 7.5.8-1.6-5.4s1.5-9.5 1.6-11.2c.1-3.2-8.8-8.8-12.8-3.2z" fill="#FFB9A3"/><path d="M149 197.2h-3v12.3h3v-12.3z" fill="#0C2340"/><path d="M155.8 197.1h-16.7c-1.1 0-2-.9-2-2v-.5c0-1.2.9-2.1 2-2.1h16.7c1.2 0 2.2 1 2.2 2v.5c0 1.2-1 2.1-2.2 2.1z" fill="#0056EC"/><path d="M145.3 212.7c-.1-2.8-2.4-2.1-1.2-6.6.8-2.9 6.6.4 6 2.4-.8 2-1.6 5-1.6 5l-3.2-.8z" fill="#FFB9A3"/><path d="M179.4 232c-14.8 1-15.8 6-22.4 5.2-9.8-1.1-8-19.3-6.8-25.8h-5.9s-10.5 41.4 22.7 33.7c-1.2 7.3 7 19.1-1 33.5a52.3 52.3 0 0034.5 0c-1.8-2.4 3.6-26.5-7-43.8-2-3.4-13-2.8-14.1-2.7z" fill="#0056EC"/><path d="M179.4 232c-14.8 1-15.8 6-22.4 5.2-9.8-1.1-8-19.3-6.8-25.8h-5.9s-10.5 41.4 22.7 33.7c-1.2 7.3 7 19.1-1 33.5a52.3 52.3 0 0034.5 0c-1.8-2.4 3.6-26.5-7-43.8-2-3.4-13-2.8-14.1-2.7z" fill="#0056EC"/><path d="M177.3 217c1 .2 2 .4 2.6 1.2.3.5.3 1.2.3 1.8.2-.7.9-1.1 1.6-1 .7 0 1.3.7 1.3 1.3l-.3 1c-.2.7-.6 1.4-1 2 1.2.5 2.2 4 2.8 5 2-.4 6.5-2.2 6.9-9.3.2-3.4-.8-7.4-4.5-9.6-2.5-1.6-6.8-1.6-9.7-.9-2.4.6-6.2 3-4.4 5.8.9 1.4 2.8 2.2 4.4 2.6z" fill="#EF832B"/><path d="M190 212.4c1.3-.5 3-.3 4 .9.5.9.5 2 .7 3.1 0 .6.3 1 .7 1.4.5.5 1.1.6 1.8.6 1.6 0 3.2-.1 4.8.1 1.5.3 3.1 1.2 3.6 2.7.2.8 0 1.7.4 2.4.4 1.2 1.7 2 2.8 2.6 2.4 1.5 4.4 3.5 5.8 5.8 1 1.5 1.6 3 1.7 4.8.1 1.7 1.4 4 1 5.6-.3 1.8-2 4.3-5.6 5.4-6 2-8 2.8-13.8-.7-.7-.4-2-1.8-2.7-2.3-.5-.4-.8-1-1-1.6-.5-1.6 0-3.4 1-5 .8-1.5 2-2.8 2.9-4.3.5-1 1-2 .9-3 0-.4-.1-.8-.4-1-.3-.3-.6-.4-1-.5-1.2-.2-2.6 0-3.8-.6-1.1-.5-1.7-1.9-1.4-3 .3-.8.8-1.5 1-2.3.2-1.1-.5-2.3-1.5-3-1-.6-2.2-.9-3.4-1-.6-.2-1.2-.3-1.7-.6-.6-.5-.8-1.2-.8-2 0-2.2 1.8-3.8 4-4.5z" fill="#EF832B"/><path d="M188.9 218.4c7.3 1.6-2 8.5 2 11.8 1 1 2.3.7 3.6.9 5 .6 2.2 4 1.9 6.7 0 .4.6.4.7 0 .4-1.8 2-4 1.2-6-.7-1.7-2.6-1.4-4.2-1.5-2 0-4 0-3.3-3.8.1-.9.8-1.8 1.2-2.6.3-1 .6-1.8.4-2.9-.4-1.7-1.8-2.7-3.4-3-.3 0-.4.4-.1.4zM173.8 209.5a13.5 13.5 0 0116 1.9c.3.3.8-.2.5-.5a12.5 12.5 0 00-16.6-1.7c-.2.1 0 .4.1.3z" fill="#EF832B"/><path d="M363 227.1l-2.5 5 6 2.4.6-5.7-4.1-1.7z" fill="#FFB9A3"/><path d="M366.6 211.2c-13.5 5.8-8 20.1.2 18.5 4-.9 6-13.8 6-13.8l-6.2-4.7z" fill="#FFB9A3"/><path d="M371 209.1c-.4-.8-.8-1.7-1.5-2.3-.8-.6-2-.7-2.6-.1-1 .8-.4 2.4.5 3.3-.8 0-1.7-.5-2.3 0-.4.5-.3 1.2 0 1.8a7.5 7.5 0 002.8 3.1c-.7.4-1.5 1.2-1.1 1.8l.4.5c.3.5 0 1-.3 1.5a26 26 0 01-1.3 2c.4-.6 1.6-.4 2 .4.2.7 0 1.6-.6 2.1-.3.4-.6.6-1 .7-.4.1-2 5.2-.8 6.2 1.6 1.2 7 .1 7.7-1.2.8.8 2 1.4 3 1.2 1.2-.2 2-1.6 1.4-2.6 1.3.5 2.7 0 3.6-1 .8-1 1-2.4.3-3.6.6-.2.8-1 .6-1.7a4.1 4.1 0 00-2.8-3c.7.1 1.2-.6 1.2-1.3 0-.7-.3-1.3-.7-1.8-1.3-1.6-2.8-2-4.7-2.3-1.8-.2-2.9-2.1-3.7-3.7z" fill="#4A49CA"/><path d="M358.4 354s-8 3.8-9 5c0 0 15.6.7 16.8 0 1.2-.8-2.5-5-2.5-5h-5.3zM387.8 349.7s-6.9 5.4-7.7 6.8c0 0 16.4-2.5 16.4-3.5 0-1.1-3.5-4.4-3.5-4.4l-5.2 1.1z" fill="#0C2340"/><path d="M366 280.6c-.2 1.6-11 44.4 20 70l9-2s-10.5-9.8-15.5-27.4c-4.6-16.7-1-18.4 1.9-27.6 3-10.1.8-17.5.8-17.5l-16.2 4.5z" fill="#D8742A"/><path d="M351.2 280.5c-4.9 11.7-13.3 51.8 5 74.3h9.3s-7.3-8-8-26.3c-1-18.4 3.8-26.5 7-32.6 3.4-6 6.4-16.4 6.4-16.4l-19.7 1z" fill="#EF832B"/><path d="M344.8 207.6c-2.5 8.6-3.3 24.5 9 31l8.1-2s-14.7-7.8-11.6-27.4l-5.5-1.6z" fill="#0B43A4"/><path d="M322.2 203.2l6.4-.8s-.8 26.7 30 29c23.5 1.7 25.3 45.8 25.3 45.8-7.5 5.1-20.2 6.7-36.5 5.5 0 0 1-31.5-1.6-40.1 0 0-25.6-8-23.6-39.4z" fill="#0056EC"/><path d="M314.5 198.3c-1.1 1.3 3.4 2.9 7.7 4.9l5.6-.7v-2.3c0-1.1-.7-1.8-1.3-.8-.7 1-3.5 1.3-4.8.4-1.4-.9-6.2-2.7-7.2-1.5zM344.8 207.6c-2-2-1.5-1.9-1.5-1.9l6.2 1.4s1.4-3 2.5-3.1c1.2 0-.9 2-.4 2.9.5.8-1.3 2.3-1.3 2.3l-5.5-1.6z" fill="#FFB9A3"/><path d="M374.6 212c1.2.4 2.5.5 3.6 1.4 1 .9 1.5 2.3.8 3.6-.4.5.5 1 .8.5 1-1.3.7-3-.2-4.2-1.2-1.4-3.2-2-5-1.8-.3 0-.4.5 0 .6zM380.2 223.6c.8.5 1.6 1.3 1.2 2.4-.3 1-1.3 1.5-2.1 2-.4.3 0 1 .4.7 1.1-.6 2.4-1.5 2.6-3 .1-1.2-.7-2.1-1.8-2.7-.3-.2-.7.4-.3.6zM366 230c2.9 1.9 7 1.6 9.3-1 .3-.2-.1-.8-.5-.6a8.3 8.3 0 01-8.6 1.3c-.2-.1-.5.2-.2.4z" fill="#4A49CA"/><path d="M380.6 214c1.6 1.5 0 3.7-1 5-.3.3 0 .7.3.4 1-.8 2-1.8 2-3.2.2-1-.3-2-1.2-2.4 0-.1-.2 0-.1.1z" fill="#4A49CA"/><path d="M197.4 16l-2.6-6.2L219.4.5l-22 15.5z" fill="#0B43A4"/><path d="M198.6 12.2L219.4.5 204.9 15l-6.3-3zM189.2 7.3L219.4.5l-24.6 9.3-5.6-2.5z" fill="#5193F4"/><path d="M198.6 12.2l-1.2 3.8 3.7-2.6-2.5-1.2z" fill="#0056EC"/><path d="M194.5 15.2c-6.4-1.1-15 5.4-11.3 12.1 1.2 2.3 7.8 1.3 7.3-1.2-.2-1.2-1.7-1.8-3-1.6-7.1.8-7.4 6.8-7 8.3 1.6 7.9 13.7 5.2 17.7 4.1" stroke="#C8DBFB" stroke-miterlimit="10" stroke-linecap="round" stroke-linejoin="round" stroke-dasharray="4 4"/></svg>